<?xml version="1.0" standalone="no"?>
<!DOCTYPE svg PUBLIC "-//W3C//DTD SVG 20010904//EN"
 "http://www.w3.org/TR/2001/REC-SVG-20010904/DTD/svg10.dtd">
<svg version="1.0" xmlns="http://www.w3.org/2000/svg"
 width="512.000000pt" height="512.000000pt" viewBox="0 0 512.000000 512.000000"
 preserveAspectRatio="xMidYMid meet">
<metadata>
Created by potrace 1.16, written by Peter Selinger 2001-2019
</metadata>
<g transform="translate(0.000000,512.000000) scale(0.100000,-0.100000)"
fill="#000000" stroke="none">
<path d="M1913 4125 c-100 -31 -183 -103 -228 -198 -14 -29 -82 -259 -151
-512 -69 -253 -135 -479 -146 -503 -11 -23 -35 -54 -54 -68 -66 -51 -86 -53
-424 -54 -239 0 -329 -4 -375 -15 -33 -8 -65 -14 -72 -15 -9 0 -13 62 -15 244
l-3 244 -30 44 c-40 57 -119 98 -190 98 -71 0 -150 -41 -190 -98 l-30 -44 0
-1063 0 -1063 30 -44 c77 -111 252 -131 348 -40 65 61 71 87 75 317 l4 211 69
31 68 31 3 -253 3 -253 30 -44 c40 -57 119 -98 190 -98 71 0 150 41 190 98
l30 44 3 222 3 222 47 16 c108 39 186 113 228 216 l23 57 75 3 75 3 3 -370 3
-369 30 -44 c40 -57 119 -98 190 -98 71 0 150 41 190 98 l30 44 3 369 3 369
149 0 149 0 3 -144 c3 -142 4 -145 33 -188 40 -57 119 -98 190 -98 71 0 150
41 190 98 l30 44 0 241 0 242 -28 53 c-16 30 -46 74 -69 98 -39 42 -144 104
-177 104 -15 0 -17 32 -18 309 l-2 309 113 4 c98 4 121 8 169 32 31 15 74 47
96 72 58 66 71 115 71 264 0 113 -2 129 -19 144 -16 15 -119 45 -273 80 -22 5
-36 22 -68 84 -43 84 -75 125 -132 167 -47 34 -145 65 -209 65 l-49 0 0 130
c0 117 -2 132 -20 150 -24 24 -100 26 -167 5z m37 -284 c0 -117 1 -120 26
-140 23 -18 41 -21 116 -21 146 0 200 -36 273 -181 24 -47 50 -91 59 -98 9 -7
73 -28 143 -45 l128 -33 -2 -60 c-2 -71 -20 -113 -65 -145 -30 -21 -46 -23
-190 -28 -110 -3 -161 -9 -170 -18 -10 -10 -14 -99 -19 -380 -5 -349 -6 -370
-27 -423 -58 -146 -169 -229 -326 -246 -102 -11 -96 15 -96 -423 0 -305 -3
-387 -14 -414 -25 -61 -97 -61 -122 -1 -11 28 -14 107 -14 415 0 367 -1 381
-20 400 -19 19 -33 20 -205 20 -217 0 -216 0 -234 -100 -6 -35 -22 -80 -36
-101 -32 -49 -100 -88 -166 -96 -90 -11 -89 -8 -89 -273 0 -248 -7 -291 -50
-305 -38 -12 -70 3 -86 41 -13 30 -14 87 -10 353 l4 316 125 5 c104 4 128 8
146 24 28 26 29 88 1 116 -19 19 -33 20 -205 20 -217 0 -216 0 -234 -100 -6
-35 -22 -80 -36 -101 -32 -49 -100 -88 -166 -96 -90 -11 -89 -7 -90 -275 -1
-128 -4 -244 -8 -258 -9 -33 -50 -55 -85 -46 -57 14 -58 28 -54 565 4 467 5
489 26 552 52 158 180 289 337 345 43 16 98 19 410 24 l360 5 66 31 c88 42
140 91 178 167 20 40 78 231 161 534 71 260 136 486 144 502 17 32 83 91 103
91 10 0 13 -29 13 -119z m-1690 -621 c34 -18 40 -65 40 -304 l-1 -231 -74 -68
-75 -69 0 300 c0 185 4 312 10 329 18 48 58 66 100 43z m2182 -1096 c83 -53
108 -129 108 -331 0 -171 -23 -217 -96 -199 -43 11 -54 57 -54 231 0 185 -5
195 -91 195 l-51 0 30 38 c16 20 37 51 47 69 22 38 45 37 107 -3z"/>
<path d="M3200 3170 c-116 -25 -203 -95 -272 -224 l-43 -80 -144 -36 c-98 -25
-148 -43 -157 -55 -10 -14 -14 -55 -14 -149 0 -158 17 -204 99 -279 67 -59
124 -77 248 -77 82 0 93 -2 94 -17 0 -10 2 -72 4 -139 5 -164 34 -251 121
-360 l33 -41 3 -296 3 -295 30 -44 c63 -90 187 -122 290 -75 l50 24 50 -24
c103 -47 227 -15 290 75 28 41 30 51 33 147 l4 103 61 -29 c34 -16 67 -29 73
-29 8 0 13 -28 16 -74 4 -96 37 -148 117 -188 105 -54 231 -23 296 70 28 40
30 51 33 147 l4 103 68 -31 68 -31 7 -66 c8 -73 30 -122 72 -162 96 -91 271
-71 348 40 l30 44 0 763 0 763 -30 44 c-40 57 -119 98 -190 98 -71 0 -150 -41
-190 -98 l-30 -44 -3 -169 c-2 -122 -7 -169 -15 -169 -7 1 -39 7 -72 15 -42
10 -120 15 -259 15 -121 0 -214 5 -237 12 -45 13 -113 68 -133 107 -8 14 -44
136 -81 271 -37 134 -76 261 -86 282 -31 60 -76 105 -137 135 -55 27 -63 28
-232 30 -96 1 -195 -2 -220 -7z m377 -169 c44 -20 68 -49 82 -97 l8 -29 -66
-1 c-81 -1 -144 -27 -198 -81 -78 -78 -78 -78 -81 -441 l-3 -323 27 -48 c29
-55 66 -85 126 -107 51 -18 337 -20 406 -2 62 15 136 88 152 149 12 44 9 128
-5 163 -7 17 -5 18 16 11 13 -4 134 -11 269 -14 195 -6 255 -11 295 -25 157
-55 286 -188 336 -345 19 -58 22 -97 26 -326 5 -220 3 -266 -10 -297 -19 -44
-57 -59 -96 -37 -32 18 -39 44 -40 147 -1 100 -13 116 -90 125 -66 8 -134 47
-166 96 -14 21 -30 66 -36 101 -19 106 3 100 -384 100 -322 0 -336 -1 -355
-20 -19 -19 -20 -33 -20 -250 0 -248 -7 -291 -50 -305 -38 -12 -70 3 -86 40
-11 26 -14 87 -14 265 0 268 2 263 -96 273 -158 17 -270 101 -325 246 -18 48
-22 83 -27 239 -6 234 4 222 -194 222 -147 0 -172 6 -215 52 -23 24 -42 90
-43 145 0 27 4 34 28 39 258 59 246 52 297 153 89 179 125 199 350 200 117 0
147 -3 182 -18z m88 -301 c26 -12 49 -33 59 -53 17 -34 156 -532 156 -561 0
-9 -11 -28 -25 -41 -23 -24 -28 -25 -174 -25 -144 0 -151 1 -178 24 l-28 24 0
274 c0 310 2 320 80 358 50 25 59 25 110 0z m1265 -80 c34 -18 40 -66 40 -297
l0 -225 -75 69 -74 68 -1 157 c0 86 5 169 10 185 18 48 58 66 100 43z m-1478
-1050 c17 0 18 -12 18 -175 0 -190 -9 -237 -50 -250 -38 -12 -70 3 -86 40 -10
26 -14 83 -14 229 l0 195 57 -20 c31 -10 64 -19 75 -19z m910 -97 c3 -160 -2
-284 -12 -303 -12 -23 -44 -34 -76 -26 -36 10 -54 60 -54 156 0 97 -12 114
-89 123 -80 9 -141 51 -185 125 -6 9 38 12 203 12 l211 0 2 -87z"/>
</g>
</svg>
