<?xml version="1.0" standalone="no"?>
<!DOCTYPE svg PUBLIC "-//W3C//DTD SVG 20010904//EN"
 "http://www.w3.org/TR/2001/REC-SVG-20010904/DTD/svg10.dtd">
<svg version="1.0" xmlns="http://www.w3.org/2000/svg"
 width="512.000000pt" height="512.000000pt" viewBox="0 0 512.000000 512.000000"
 preserveAspectRatio="xMidYMid meet">
<metadata>
Created by potrace 1.16, written by Peter Selinger 2001-2019
</metadata>
<g transform="translate(0.000000,512.000000) scale(0.100000,-0.100000)"
fill="#000000" stroke="none">
<path d="M1016 5068 c-73 -255 -202 -731 -218 -803 -25 -118 -35 -378 -19
-511 25 -205 106 -446 205 -613 l44 -73 -25 -56 c-75 -169 -149 -446 -178
-667 -20 -145 -22 -440 -5 -580 42 -357 172 -716 358 -995 85 -127 160 -222
170 -216 4 2 39 72 77 155 38 83 72 151 75 151 4 0 32 -37 63 -82 134 -198
346 -400 585 -559 143 -94 377 -219 412 -219 35 0 276 128 415 221 238 159
449 361 582 556 31 46 59 83 63 83 3 0 38 -69 76 -152 39 -84 74 -153 79 -153
12 0 136 175 206 290 85 139 170 319 219 460 161 469 141 1022 -60 1614 l-49
145 49 85 c102 177 176 400 201 605 16 133 6 393 -19 511 -16 72 -145 548
-218 803 l-15 52 -123 0 c-210 0 -381 -57 -546 -181 -97 -73 -147 -131 -282
-330 -86 -126 -106 -149 -123 -144 -353 100 -557 100 -910 0 -17 -5 -38 21
-135 162 -129 189 -209 275 -325 351 -148 97 -305 142 -499 142 l-115 0 -15
-52z m550 -430 c50 -51 234 -304 234 -320 0 -3 -35 -32 -79 -66 l-78 -61 -23
87 c-13 48 -46 162 -75 255 -29 92 -49 167 -46 167 4 0 34 -28 67 -62z m2009
-105 c-29 -93 -62 -207 -75 -255 -16 -60 -27 -85 -34 -79 -31 23 -132 104
-140 111 -20 19 261 390 295 390 3 0 -17 -75 -46 -167z m-2305 -113 c45 -137
96 -379 145 -691 25 -156 47 -288 48 -294 2 -5 60 76 128 180 69 105 149 218
178 252 122 146 337 277 536 330 87 23 120 26 255 26 135 0 168 -3 255 -26
199 -53 414 -184 536 -330 29 -34 108 -147 177 -250 68 -104 125 -187 127
-185 2 2 22 122 44 268 64 412 113 640 168 777 43 110 48 113 66 46 97 -367
99 -375 104 -513 13 -315 -68 -579 -259 -841 l-49 -68 25 -49 c61 -121 150
-426 185 -637 70 -417 50 -753 -66 -1109 l-45 -139 -37 79 c-20 43 -68 147
-106 231 -39 84 -73 152 -76 153 -4 0 -41 -93 -84 -207 -87 -233 -123 -310
-203 -433 -157 -243 -407 -473 -679 -623 l-81 -45 -81 43 c-263 141 -525 380
-683 625 -80 123 -116 200 -203 433 -43 114 -80 207 -84 207 -3 -1 -35 -65
-71 -143 -35 -78 -83 -182 -106 -231 l-42 -89 -46 140 c-128 391 -150 779 -70
1188 33 166 100 370 165 501 l51 103 -49 68 c-181 250 -263 496 -262 793 0
139 12 213 75 444 l48 178 18 -37 c10 -19 32 -76 48 -125z"/>
<path d="M1870 3305 l0 -155 155 0 155 0 0 155 0 155 -155 0 -155 0 0 -155z"/>
<path d="M2940 3304 l0 -155 -30 21 c-77 55 -233 100 -345 100 -74 0 -194 -25
-262 -55 -119 -53 -165 -97 -435 -414 l-258 -305 0 -291 c0 -319 3 -342 63
-460 43 -87 152 -191 247 -237 67 -33 96 -58 265 -227 l190 -191 185 0 185 0
190 191 c169 169 198 194 265 227 95 46 204 150 247 237 60 118 63 141 63 460
l0 290 -235 285 c-129 157 -256 304 -282 328 l-47 42 152 0 152 0 0 155 0 155
-155 0 -155 0 0 -156z m-235 -378 c64 -32 105 -74 319 -335 l176 -213 0 -212
c0 -200 -1 -214 -24 -261 -25 -55 -71 -100 -125 -122 l-34 -15 -103 103 -103
103 62 57 c35 31 76 81 92 110 26 47 30 64 30 129 -1 132 -57 238 -165 312
-70 48 -150 68 -270 68 -120 0 -200 -20 -270 -68 -108 -74 -164 -180 -165
-312 0 -65 4 -82 30 -129 16 -29 57 -79 92 -110 l62 -57 -103 -103 -103 -103
-34 15 c-52 22 -97 65 -124 118 -24 47 -25 55 -25 262 l0 214 181 214 c208
246 251 292 299 322 85 53 212 58 305 13z m-47 -602 c36 -25 24 -54 -40 -98
l-58 -40 -57 40 c-100 68 -77 114 57 114 53 0 82 -5 98 -16z m15 -652 l107
-107 -88 -88 c-84 -83 -89 -87 -132 -87 -43 0 -48 4 -132 87 l-88 88 107 107
c59 60 110 108 113 108 3 0 54 -48 113 -108z"/>
</g>
</svg>
