<?xml version="1.0" standalone="no"?>
<!DOCTYPE svg PUBLIC "-//W3C//DTD SVG 20010904//EN"
 "http://www.w3.org/TR/2001/REC-SVG-20010904/DTD/svg10.dtd">
<svg version="1.0" xmlns="http://www.w3.org/2000/svg"
 width="512.000000pt" height="512.000000pt" viewBox="0 0 512.000000 512.000000"
 preserveAspectRatio="xMidYMid meet">
<metadata>
Created by potrace 1.16, written by Peter Selinger 2001-2019
</metadata>
<g transform="translate(0.000000,512.000000) scale(0.100000,-0.100000)"
fill="#000000" stroke="none">
<path d="M2351 5105 c-105 -23 -216 -64 -328 -121 l-105 -53 -45 50 c-130 144
-343 171 -550 69 -219 -108 -405 -323 -586 -677 -125 -245 -200 -460 -244
-703 -25 -138 -25 -456 0 -563 39 -165 138 -302 262 -363 55 -26 69 -29 165
-29 90 0 116 4 181 28 42 16 106 48 142 71 l65 43 59 -96 c76 -124 223 -275
351 -359 52 -33 99 -63 105 -65 5 -1 -19 -42 -55 -89 -109 -143 -180 -276
-237 -449 l-22 -66 -62 14 c-188 44 -383 -60 -489 -262 -99 -191 -155 -517
-129 -758 7 -59 14 -114 17 -121 4 -10 -11 -15 -54 -18 -84 -8 -153 -41 -210
-102 -69 -72 -87 -126 -87 -256 0 -125 12 -161 68 -201 l40 -29 1956 0 1956 0
38 25 c61 42 72 73 72 205 0 135 -16 179 -90 259 -54 58 -124 91 -207 99 -45
4 -58 8 -54 19 3 8 11 66 17 130 10 91 10 146 0 250 l-12 134 64 69 c137 144
215 295 246 474 15 85 13 264 -4 378 -24 158 -49 198 -133 206 -80 7 -101 -10
-172 -145 -77 -146 -143 -243 -216 -323 -77 -83 -82 -85 -146 -55 -71 32 -166
41 -245 22 l-62 -14 -22 66 c-57 171 -129 308 -237 449 -36 47 -60 88 -55 89
6 2 53 32 105 65 128 84 275 235 351 359 l59 96 65 -43 c36 -23 100 -55 142
-71 65 -24 91 -28 181 -28 96 0 110 3 165 29 125 61 225 200 262 366 24 105
24 426 -1 560 -26 146 -73 312 -123 440 -92 235 -286 580 -336 599 -33 13 -75
2 -92 -22 -28 -40 -18 -77 51 -187 83 -133 190 -347 237 -476 81 -222 115
-382 124 -589 13 -282 -44 -452 -178 -533 -51 -32 -58 -33 -127 -29 -60 3 -87
11 -155 45 -45 23 -98 55 -119 71 l-36 31 19 72 c62 243 47 571 -41 868 -91
306 -265 621 -443 803 -66 67 -67 70 -53 92 9 13 30 35 48 48 103 76 239 61
398 -43 49 -32 87 -50 106 -50 54 0 89 60 68 115 -9 23 -122 101 -196 134 -94
42 -158 54 -260 49 -114 -7 -194 -43 -267 -123 l-50 -55 -93 49 c-107 57 -233
103 -342 125 -94 20 -325 20 -415 1z m305 -149 c205 -16 473 -145 634 -307
170 -170 350 -512 425 -809 108 -424 55 -792 -152 -1067 -75 -99 -173 -188
-189 -171 -7 7 -49 83 -95 168 -45 85 -105 189 -132 230 -61 91 -176 206 -238
239 -42 22 -47 29 -53 68 -11 86 -59 147 -150 196 -35 19 -57 22 -146 22 -89
0 -111 -3 -146 -22 -91 -49 -139 -110 -150 -196 -6 -39 -11 -46 -52 -67 -67
-36 -182 -153 -245 -250 -30 -47 -89 -150 -132 -230 -43 -80 -83 -151 -90
-158 -10 -11 -23 -3 -73 43 -88 81 -164 186 -217 298 -26 54 -45 100 -43 101
1 1 41 10 88 20 217 45 439 167 618 340 235 227 363 492 407 844 12 97 15 197
13 424 l-3 297 25 -4 c14 -2 57 -6 96 -9z m-1005 -17 c42 -14 94 -52 115 -84
14 -22 13 -25 -53 -92 -177 -180 -360 -514 -448 -817 -83 -288 -97 -617 -36
-854 l19 -72 -36 -31 c-21 -16 -74 -48 -119 -71 -111 -55 -195 -63 -270 -25
-58 30 -103 80 -137 152 -43 91 -51 148 -50 345 0 160 4 202 27 310 56 268
177 557 338 812 136 214 296 362 452 419 59 21 148 24 198 8z m714 -680 c-21
-160 -55 -273 -125 -414 -70 -141 -129 -223 -238 -327 -163 -156 -366 -265
-564 -303 -80 -15 -76 -23 -85 152 -18 352 105 756 333 1101 90 134 182 230
296 305 109 72 168 101 291 142 l102 34 3 -287 c2 -211 -2 -318 -13 -403z
m270 -903 c18 -8 41 -26 51 -41 14 -22 15 -29 4 -50 -16 -31 -85 -65 -130 -65
-45 0 -114 34 -130 65 -38 70 103 133 205 91z m-276 -250 c6 -8 35 -24 64 -37
100 -44 268 -26 338 37 15 14 21 14 51 -2 57 -29 117 -84 173 -158 60 -79 259
-441 251 -455 -12 -19 -257 -110 -349 -130 -281 -61 -568 -45 -817 45 -76 27
-190 80 -190 89 0 9 174 331 205 380 57 89 115 155 177 200 65 48 79 53 97 31z
m-257 -880 c273 -83 671 -79 944 9 l79 25 52 -57 53 -58 -63 -23 c-375 -141
-773 -146 -1165 -14 l-111 37 51 58 c30 34 56 56 64 53 8 -3 51 -17 96 -30z
m2335 -426 c-3 -102 -9 -140 -31 -205 -27 -80 -89 -190 -144 -255 l-29 -34
-18 54 c-19 59 -62 147 -94 194 l-20 30 73 76 c73 77 168 211 222 315 l29 55
8 -52 c5 -29 7 -109 4 -178z m-2252 91 c357 -72 708 -44 1046 83 l91 34 48
-101 c55 -116 99 -257 126 -402 14 -78 18 -148 18 -320 -1 -228 -15 -378 -55
-560 -26 -122 -25 -149 7 -174 23 -18 41 -21 116 -21 99 0 139 -12 180 -56 37
-40 48 -75 48 -155 l0 -69 -365 0 -364 0 -3 380 c-3 377 -3 380 -25 402 -28
28 -84 29 -113 3 -19 -18 -20 -28 -20 -402 l0 -383 -360 0 -360 0 0 383 c0
374 -1 384 -20 402 -29 26 -85 25 -113 -3 -22 -22 -22 -25 -25 -402 l-3 -380
-364 0 -365 0 0 69 c0 80 11 115 48 155 41 44 81 56 180 56 75 0 93 3 116 21
32 25 33 52 6 175 -10 49 -26 146 -35 214 -18 142 -31 164 -90 164 -56 0 -81
-32 -78 -98 3 -50 24 -212 39 -282 l6 -31 -56 -6 c-115 -12 -216 -83 -264
-186 -20 -43 -26 -76 -30 -153 l-5 -98 -233 0 c-128 0 -239 3 -248 6 -12 5
-16 20 -16 63 0 78 14 122 52 158 46 44 76 53 182 53 79 0 97 3 120 21 32 25
33 57 7 161 -43 167 -36 375 19 593 15 63 42 142 59 177 77 162 216 247 336
206 47 -16 45 -5 25 -201 -13 -123 -13 -129 7 -155 15 -20 30 -28 60 -30 59
-4 78 24 87 130 18 214 67 409 145 574 l48 101 144 -48 c79 -26 189 -57 244
-68z m1689 -325 c130 -76 213 -257 252 -551 19 -142 13 -286 -16 -401 -27
-106 -26 -138 6 -163 23 -18 41 -21 120 -21 106 0 136 -9 182 -53 38 -36 52
-80 52 -158 0 -43 -4 -58 -16 -63 -9 -3 -120 -6 -248 -6 l-233 0 -5 98 c-4 77
-10 110 -30 153 -48 103 -149 174 -264 186 l-56 6 6 31 c48 237 67 576 44 792
-17 164 -18 157 22 171 51 19 133 9 184 -21z"/>
<path d="M3076 4039 c-25 -20 -26 -24 -26 -129 0 -105 1 -109 26 -129 30 -24
52 -26 88 -10 32 15 46 56 46 139 0 83 -14 124 -46 139 -36 16 -58 14 -88 -10z"/>
<path d="M1953 4048 c-30 -14 -43 -57 -43 -138 0 -83 14 -124 46 -139 36 -16
58 -14 88 10 25 20 26 24 26 129 0 105 -1 109 -26 129 -29 23 -57 26 -91 9z"/>
<path d="M2254 2889 c-15 -17 -19 -35 -18 -93 2 -138 74 -216 198 -216 31 0
71 7 91 17 33 16 37 16 70 0 21 -10 60 -17 93 -17 47 0 67 6 105 29 64 41 90
94 91 187 1 90 -16 114 -79 114 -53 0 -75 -22 -75 -78 0 -61 -15 -92 -44 -92
-32 0 -46 26 -46 84 0 60 -25 86 -80 86 -55 0 -80 -26 -80 -86 0 -58 -14 -84
-46 -84 -29 0 -44 31 -44 94 0 54 -22 76 -77 76 -28 0 -46 -6 -59 -21z"/>
</g>
</svg>
